<svg width="120" height="72" viewBox="0 0 120 72" fill="none" xmlns="http://www.w3.org/2000/svg">
<g id="Frame 1" clip-path="url(#clip0_7_3)">
<path id="primary" d="M110.64 -18H0V90H110.473C112.062 90 113.556 89.245 114.499 87.966L117.689 83.6368C119.048 81.7925 118.979 79.2607 117.523 77.4923L115.477 75.0077C114.021 73.2393 113.952 70.7075 115.311 68.8632L117.689 65.6368C119.048 63.7925 118.979 61.2607 117.523 59.4923L115.477 57.0077C114.021 55.2393 113.952 52.7075 115.311 50.8632L117.689 47.6368C119.048 45.7925 118.979 43.2607 117.523 41.4923L115.477 39.0077C114.021 37.2393 113.952 34.7075 115.311 32.8632L117.689 29.6368C119.048 27.7925 118.979 25.2607 117.523 23.4923L115.477 21.0077C114.021 19.2393 113.952 16.7075 115.311 14.8632L117.689 11.6368C119.048 9.79253 118.979 7.26065 117.523 5.49227L115.477 3.00773C114.021 1.23935 113.952 -1.29253 115.311 -3.1368L117.689 -6.3632C119.048 -8.20747 118.979 -10.7393 117.523 -12.5077L114.5 -16.1785C113.55 -17.3319 112.134 -18 110.64 -18Z" fill="#EB3030"/>
</g>
<defs>
</defs>
</svg>
