<svg version="1.1" viewBox="0.0 0.0 418.0472440944882 416.41207349081367" fill="none" stroke="none" stroke-linecap="square" stroke-miterlimit="10" xmlns:xlink="http://www.w3.org/1999/xlink" xmlns="http://www.w3.org/2000/svg"><clipPath id="p.0"><path d="m0 0l418.04724 0l0 416.41208l-418.04724 0l0 -416.41208z" clip-rule="nonzero"/></clipPath><g clip-path="url(#p.0)"><path fill="#000000" fill-opacity="0.0" d="m0 0l418.04724 0l0 416.41208l-418.04724 0z" fill-rule="evenodd"/><path fill="#c5978c" d="m378.9972 303.65155l0 0c-32.25998 9.037567 -71.80609 -25.586365 -88.328735 -77.33473l0 0c-16.522614 -51.748352 -3.7649841 -101.025085 28.495026 -110.06265l0 0c32.25998 -9.037575 71.80609 25.586365 88.328735 77.33472l0 0c16.522614 51.748352 3.7649536 101.0251 -28.495026 110.06267z" fill-rule="evenodd"/><path fill="#976178" d="m70.43447 253.9123l131.84021 0l-26.368042 160.59525l-79.104126 0z" fill-rule="evenodd"/><path fill="#976178" d="m215.34215 253.9123l131.8402 0l-26.368042 160.59525l-79.10411 0z" fill-rule="evenodd"/><path fill="#c5978c" d="m32.07392 299.95532l0 0c-30.977919 -12.355347 -37.78546 -62.666534 -15.205076 -112.373184l0 0c22.580389 -49.70665 65.99798 -79.98585 96.97589 -67.6305l0 0c30.977928 12.355354 37.78547 62.666542 15.205086 112.37319l0 0c-22.58039 49.706635 -65.99798 79.98584 -96.9759 67.63049z" fill-rule="evenodd"/><path fill="#976178" d="m65.44349 241.59854l0 0c0 -78.770996 65.061424 -142.6275 145.31876 -142.6275l0 0c38.54094 0 75.50333 15.026787 102.75589 41.774635c27.252533 26.747833 42.562866 63.02571 42.562866 100.852875l0 0c0 78.770996 -65.06143 142.6275 -145.31876 142.6275l0 0c-80.257324 0 -145.31876 -63.856506 -145.31876 -142.6275z" fill-rule="evenodd"/><path fill="#c5978c" d="m65.44349 161.16046l0 0c0 -89.00957 65.061424 -161.16609 145.31876 -161.16609l0 0c38.54094 0 75.50333 16.97995 102.75589 47.204456c27.252533 30.224503 42.562866 71.21773 42.562866 113.96163l0 0c0 89.00958 -65.06143 161.1661 -145.31876 161.1661l0 0c-80.257324 0 -145.31876 -72.156525 -145.31876 -161.1661z" fill-rule="evenodd"/><path fill="#bac0d9" d="m42.916813 87.5866c8.718735 -5.358078 30.90057 -13.08931 51.61601 -11.403481c20.715439 1.6858215 70.318954 18.372711 72.67662 21.518448c2.357666 3.145729 -40.792625 -5.198471 -58.530655 -2.6440353c-17.73803 2.5544357 -36.821114 15.758301 -47.897507 17.970642c-11.076397 2.2123413 -15.58345 -0.45633698 -18.56086 -4.696594c-2.9774132 -4.240265 -8.022343 -15.386902 0.69639206 -20.74498z" fill-rule="evenodd"/><path stroke="#bac0d9" stroke-width="4.0" stroke-linejoin="round" stroke-linecap="butt" d="m42.916813 87.5866c8.718735 -5.358078 30.90057 -13.08931 51.61601 -11.403481c20.715439 1.6858215 70.318954 18.372711 72.67662 21.518448c2.357666 3.145729 -40.792625 -5.198471 -58.530655 -2.6440353c-17.73803 2.5544357 -36.821114 15.758301 -47.897507 17.970642c-11.076397 2.2123413 -15.58345 -0.45633698 -18.56086 -4.696594c-2.9774132 -4.240265 -8.022343 -15.386902 0.69639206 -20.74498z" fill-rule="evenodd"/><path fill="#bac0d9" d="m66.57237 146.55823c4.359726 -7.565567 18.085655 -22.243958 34.87993 -29.054863c16.794273 -6.8109055 62.655685 -13.323006 65.88571 -11.810585c3.2300415 1.5124283 -33.909805 11.956993 -46.505516 20.885147c-12.595703 8.928162 -21.47895 26.630646 -29.068718 32.683792c-7.58976 6.053131 -12.271278 5.7523193 -16.469849 3.6350708c-4.1985626 -2.1172485 -13.081287 -8.772995 -8.721558 -16.338562z" fill-rule="evenodd"/><path stroke="#bac0d9" stroke-width="4.0" stroke-linejoin="round" stroke-linecap="butt" d="m66.57237 146.55823c4.359726 -7.565567 18.085655 -22.243958 34.87993 -29.054863c16.794273 -6.8109055 62.655685 -13.323006 65.88571 -11.810585c3.2300415 1.5124283 -33.909805 11.956993 -46.505516 20.885147c-12.595703 8.928162 -21.47895 26.630646 -29.068718 32.683792c-7.58976 6.053131 -12.271278 5.7523193 -16.469849 3.6350708c-4.1985626 -2.1172485 -13.081287 -8.772995 -8.721558 -16.338562z" fill-rule="evenodd"/><path fill="#bac0d9" d="m97.6062 15.618552c8.785294 0.9953947 27.69323 7.3854647 40.15416 19.175571c12.4609375 11.790112 34.91696 48.292072 34.61145 51.565083c-0.30551147 3.2730103 -23.441605 -24.44524 -36.444534 -31.92701c-13.00293 -7.4817734 -33.093246 -8.6952095 -41.57302 -12.963615c-8.479782 -4.268406 -9.847649 -8.33849 -9.305664 -12.646828c0.5419922 -4.308338 3.7723083 -14.198597 12.55761 -13.203202z" fill-rule="evenodd"/><path fill="#bac0d9" d="m388.75665 87.586426c-8.71875 -5.358078 -30.900574 -13.08931 -51.616028 -11.403488c-20.715424 1.6858292 -70.31897 18.372711 -72.676605 21.518448c-2.357666 3.1457367 40.792633 -5.1984634 58.53064 -2.6440353c17.738037 2.5544357 36.821106 15.758301 47.897522 17.970642c11.0763855 2.2123413 15.583435 -0.45632935 18.560852 -4.696594c2.977417 -4.2402573 8.022339 -15.386902 -0.6963806 -20.744972z" fill-rule="evenodd"/><path stroke="#bac0d9" stroke-width="4.0" stroke-linejoin="round" stroke-linecap="butt" d="m388.75665 87.586426c-8.71875 -5.358078 -30.900574 -13.08931 -51.616028 -11.403488c-20.715424 1.6858292 -70.31897 18.372711 -72.676605 21.518448c-2.357666 3.1457367 40.792633 -5.1984634 58.53064 -2.6440353c17.738037 2.5544357 36.821106 15.758301 47.897522 17.970642c11.0763855 2.2123413 15.583435 -0.45632935 18.560852 -4.696594c2.977417 -4.2402573 8.022339 -15.386902 -0.6963806 -20.744972z" fill-rule="evenodd"/><path fill="#bac0d9" d="m365.10107 146.55806c-4.3597107 -7.5655823 -18.085663 -22.243965 -34.879913 -29.05487c-16.794281 -6.810913 -62.6557 -13.323013 -65.88571 -11.810585c-3.2300415 1.5124283 33.90979 11.956993 46.505493 20.885147c12.595734 8.928154 21.478973 26.630638 29.068726 32.683784c7.589752 6.0531464 12.271271 5.7523193 16.469849 3.6350708c4.198578 -2.1172485 13.081299 -8.77298 8.721558 -16.338547z" fill-rule="evenodd"/><path stroke="#bac0d9" stroke-width="4.0" stroke-linejoin="round" stroke-linecap="butt" d="m365.10107 146.55806c-4.3597107 -7.5655823 -18.085663 -22.243965 -34.879913 -29.05487c-16.794281 -6.810913 -62.6557 -13.323013 -65.88571 -11.810585c-3.2300415 1.5124283 33.90979 11.956993 46.505493 20.885147c12.595734 8.928154 21.478973 26.630638 29.068726 32.683784c7.589752 6.0531464 12.271271 5.7523193 16.469849 3.6350708c4.198578 -2.1172485 13.081299 -8.77298 8.721558 -16.338547z" fill-rule="evenodd"/><path fill="#bac0d9" d="m323.91837 15.6184c-8.785309 0.9953947 -27.693237 7.3854647 -40.154175 19.175571c-12.4609375 11.790112 -34.91696 48.292072 -34.61145 51.565083c0.30551147 3.2730103 23.44162 -24.44524 36.44455 -31.92701c13.002899 -7.4817696 33.09323 -8.6952095 41.572998 -12.963615c8.479797 -4.268406 9.847656 -8.33849 9.305664 -12.646828c-0.5419922 -4.308338 -3.7723083 -14.198597 -12.557587 -13.203202z" fill-rule="evenodd"/><path fill="#bf606d" d="m147.57219 112.85685l0 0c0 -23.014282 22.865036 -41.671043 51.07048 -41.671043l0 0c28.20546 0 51.070496 18.656761 51.070496 41.671043l0 0c0 23.014275 -22.865036 41.671043 -51.070496 41.671043l0 0c-28.205444 0 -51.07048 -18.656769 -51.07048 -41.671043z" fill-rule="evenodd"/><path fill="#bf606d" d="m178.7126 112.85685l0 0c0 -23.014282 22.865051 -41.671043 51.070496 -41.671043l0 0c28.20546 0 51.07048 18.656761 51.07048 41.671043l0 0c0 23.014275 -22.86502 41.671043 -51.07048 41.671043l0 0c-28.205444 0 -51.070496 -18.656769 -51.070496 -41.671043z" fill-rule="evenodd"/><path fill="#693c61" d="m178.7126 114.247696l0 0c0 -8.437065 5.2745514 -15.276665 11.781036 -15.276665l0 0c3.124527 0 6.1210785 1.6095047 8.33046 4.474434c2.2093658 2.8649292 3.4505768 6.7506104 3.4505768 10.802231l0 0c0 8.437073 -5.2745514 15.276657 -11.781036 15.276657l0 0c-6.506485 0 -11.781036 -6.8395844 -11.781036 -15.276657z" fill-rule="evenodd"/><path fill="#693c61" d="m229.77342 112.85685l0 0c0 -8.437073 5.2745514 -15.276665 11.781036 -15.276665l0 0c3.124527 0 6.1210785 1.6094971 8.330444 4.474434c2.209381 2.8649292 3.450592 6.7506104 3.450592 10.802231l0 0c0 8.437065 -5.2745514 15.276665 -11.781036 15.276665l0 0c-6.506485 0 -11.781036 -6.8395996 -11.781036 -15.276665z" fill-rule="evenodd"/></g></svg>